<mxfile host="app.diagrams.net" modified="2024-02-19T15:28:07.284Z" agent="Mozilla/5.0 (Windows NT 10.0; Win64; x64) AppleWebKit/537.36 (KHTML, like Gecko) Chrome/120.0.0.0 Safari/537.36 OPR/106.0.0.0" version="23.1.5" etag="MvmkSjcwTK2Yf7JKLtne" type="github">
  <diagram name="PÃ¡gina-1" id="8eyc8U_L0UAhTIZkvKL5">
    <mxGraphModel>
      <root>
        <mxCell id="0" />
        <mxCell id="1" parent="0" />
      </root>
    </mxGraphModel>
  </diagram>
</mxfile>
